<?xml version="1.0" standalone="no"?>
<!DOCTYPE svg PUBLIC "-//W3C//DTD SVG 20010904//EN"
 "http://www.w3.org/TR/2001/REC-SVG-20010904/DTD/svg10.dtd">
<svg version="1.0" xmlns="http://www.w3.org/2000/svg"
 width="128.000000pt" height="128.000000pt" viewBox="0 0 128.000000 128.000000"
 preserveAspectRatio="xMidYMid meet">
<metadata>
Created by potrace 1.14, written by Peter Selinger 2001-2017
</metadata>
<g transform="translate(0.000000,128.000000) scale(0.100000,-0.100000)"
fill="#000000" stroke="none">
<path d="M608 1103 c-14 -9 -31 -27 -37 -39 -8 -19 -15 -21 -54 -17 -58 7
-102 -16 -117 -61 -16 -50 1 -117 40 -156 l20 -20 -27 -12 c-16 -7 -80 -13
-143 -14 -123 -2 -166 -13 -227 -60 -78 -59 -75 -136 6 -179 l28 -14 -44 -86
c-50 -101 -56 -161 -23 -229 21 -45 82 -90 140 -106 117 -32 226 -13 345 59
125 76 181 143 286 344 l30 58 51 -37 c80 -57 186 -104 236 -104 87 0 139 41
146 116 5 56 -10 87 -70 144 -84 79 -127 95 -261 95 -62 0 -113 3 -113 8 0 4
4 7 9 7 19 0 61 77 61 113 0 47 -36 87 -78 87 -27 0 -30 4 -36 40 -5 31 -14
45 -39 60 -39 24 -93 25 -129 3z"/>
</g>
</svg>
