<svg width="640" height="640" viewBox="0 0 640 640" fill="none" xmlns="http://www.w3.org/2000/svg">
<path d="M153.205 444.653C154.423 451.048 156.821 456.11 160.399 459.84C163.977 463.495 168.202 465.322 173.074 465.322C176.272 465.322 178.631 464.408 180.154 462.581C181.676 460.754 182.438 458.737 182.438 456.529C182.438 453.256 180.991 450.515 178.099 448.307C175.282 446.024 171.209 443.588 165.88 440.999C158.725 437.498 153.32 433.615 149.666 429.352C146.012 425.089 144.185 419.913 144.185 413.823C144.185 409.331 145.288 405.449 147.496 402.175C149.78 398.826 152.863 396.276 156.745 394.525C160.628 392.774 164.967 391.898 169.763 391.898C172.275 391.898 174.977 392.165 177.87 392.698C180.839 393.154 183.199 393.878 184.95 394.867L194.656 391.898C196.026 394.258 196.902 397.532 197.282 401.719C197.663 405.829 197.853 410.587 197.853 415.992V417.705H188.375C185.635 406.591 180.268 401.033 172.275 401.033C169.23 401.033 166.946 401.909 165.424 403.66C163.901 405.335 163.14 407.58 163.14 410.397C163.14 412.681 163.749 414.66 164.967 416.335C166.185 418.009 167.707 419.456 169.534 420.674C171.438 421.816 173.95 423.148 177.071 424.67C181.867 427.03 185.863 429.238 189.061 431.293C192.334 433.349 195.151 436.089 197.511 439.515C199.87 442.864 201.05 446.861 201.05 451.505C201.05 455.768 199.985 459.65 197.853 463.152C195.722 466.578 192.6 469.318 188.49 471.374C184.455 473.429 179.735 474.457 174.33 474.457C168.164 474.457 162.036 473.162 155.946 470.574L147.153 474.457C145.707 471.564 144.451 467.072 143.385 460.982C142.32 454.816 141.787 449.373 141.787 444.653H153.205Z" fill="black"/>
<path d="M272.076 391.67C273.294 394.334 274.246 399.168 274.931 406.172C275.616 413.175 275.959 418.923 275.959 423.414C274.969 423.795 273.409 424.1 271.277 424.328C269.222 424.556 267.357 424.67 265.682 424.67C265.225 418.58 264.464 413.899 263.398 410.625C262.409 407.352 261.038 405.106 259.287 403.888C257.536 402.67 255.253 402.061 252.436 402.061H250.495V459.27C250.495 461.401 251.485 462.962 253.464 463.951C255.443 464.941 258.488 465.436 262.599 465.436C262.599 466.806 262.37 468.138 261.914 469.432C261.457 470.726 260.81 471.83 259.973 472.744H221.148C220.387 471.83 219.778 470.726 219.321 469.432C218.865 468.138 218.636 466.806 218.636 465.436C227.238 465.436 231.54 463.38 231.54 459.27V402.061H229.027C221.034 402.061 216.429 409.598 215.211 424.67C209.882 424.442 206.456 424.023 204.934 423.414C204.934 418.923 205.276 413.175 205.961 406.172C206.647 399.168 207.598 394.334 208.816 391.67C212.318 391.67 215.439 392.127 218.18 393.04H262.713C265.606 392.127 268.727 391.67 272.076 391.67Z" fill="black"/>
<path d="M347.581 441.57C347.581 452.152 345.069 460.259 340.044 465.892C335.096 471.45 327.712 474.228 317.892 474.228C307.996 474.228 300.231 471.526 294.597 466.121C288.964 460.716 286.148 452.913 286.148 442.712V405.944C286.148 403.888 285.615 402.442 284.549 401.604C283.483 400.691 281.656 400.234 279.068 400.234C279.068 397.341 279.943 394.943 281.694 393.04H310.241C311.992 394.943 312.868 397.341 312.868 400.234C310.279 400.234 308.452 400.691 307.387 401.604C306.321 402.442 305.788 403.888 305.788 405.944V445.11C305.788 450.591 306.93 455.007 309.214 458.356C311.573 461.629 315.151 463.266 319.947 463.266C324.743 463.266 328.207 461.782 330.338 458.813C332.546 455.768 333.65 451.809 333.65 446.937V405.944C333.65 403.888 333.003 402.442 331.709 401.604C330.491 400.691 328.435 400.234 325.543 400.234C325.543 397.189 326.38 394.791 328.055 393.04H353.176C354.851 394.943 355.688 397.341 355.688 400.234C352.795 400.234 350.702 400.691 349.408 401.604C348.19 402.442 347.581 403.888 347.581 405.944V441.57Z" fill="black"/>
<path d="M422.477 455.159C423.314 458.052 424.38 460.221 425.674 461.667C427.044 463.038 428.795 463.875 430.927 464.18V469.889C429.176 472.325 425.864 473.543 420.992 473.543C416.425 473.543 412.809 472.782 410.145 471.259C407.556 469.737 405.615 467.758 404.321 465.322C403.103 462.809 401.961 459.536 400.895 455.501C399.753 451.01 398.535 447.28 397.241 444.311C395.947 441.342 394.272 439.515 392.217 438.83H384.681V459.726C384.681 461.706 385.404 463.19 386.85 464.18C388.296 465.093 390.2 465.55 392.56 465.55C392.56 468.29 391.722 470.688 390.047 472.744H361.386C359.635 470.612 358.76 468.214 358.76 465.55C361.348 465.55 363.213 465.093 364.355 464.18C365.573 463.266 366.182 461.782 366.182 459.726V406.058C366.182 404.002 365.573 402.518 364.355 401.604C363.137 400.691 361.234 400.234 358.646 400.234C358.646 397.189 359.407 394.791 360.929 393.04C365.954 393.04 371.587 392.888 377.829 392.584C383.31 392.279 387.611 392.127 390.732 392.127C412.504 392.127 423.39 399.473 423.39 414.165C423.39 425.356 417.453 432.169 405.577 434.605C409.003 435.594 412.276 437.992 415.397 441.799C418.518 445.529 420.878 449.982 422.477 455.159ZM389.705 430.951C394.272 430.951 397.85 429.542 400.439 426.726C403.027 423.833 404.321 420.027 404.321 415.307C404.321 410.435 403.179 406.819 400.895 404.459C398.688 402.023 395.148 400.805 390.276 400.805C387.687 400.805 385.822 400.957 384.681 401.262V430.722C386.051 430.875 387.726 430.951 389.705 430.951Z" fill="black"/>
<path d="M498.677 448.65C498.677 451.162 498.068 455.654 496.85 462.124C495.632 468.519 494.528 472.668 493.539 474.571C492.321 474.266 490.722 473.657 488.743 472.744H435.873C434.123 470.46 433.247 468.062 433.247 465.55C435.835 465.55 437.739 465.093 438.957 464.18C440.175 463.266 440.784 461.744 440.784 459.612V406.058C440.784 404.002 440.175 402.518 438.957 401.604C437.815 400.691 435.95 400.234 433.361 400.234C433.361 397.722 434.237 395.324 435.988 393.04H480.293C481.587 392.431 483.071 391.975 484.746 391.67C486.497 391.289 488.096 391.099 489.542 391.099C490.684 393.307 491.902 396.352 493.196 400.234C494.566 404.117 495.251 406.933 495.251 408.684C494.338 409.521 492.777 410.397 490.57 411.31C488.362 412.224 486.459 412.833 484.86 413.137C483.871 410.321 482.31 407.885 480.179 405.829C478.047 403.774 475.573 402.746 472.756 402.746H459.853V426.84H468.075C473.023 426.84 475.497 424.061 475.497 418.504C478.923 418.504 482.006 419.304 484.746 420.902V442.141C483.528 442.903 482.12 443.512 480.521 443.968C478.923 444.349 477.286 444.539 475.611 444.539C475.611 441.646 474.926 439.477 473.556 438.03C472.185 436.584 470.396 435.861 468.189 435.861H459.853V462.695H473.67C476.867 462.695 479.646 461.363 482.006 458.699C484.365 455.958 485.85 452.609 486.459 448.65H498.677Z" fill="black"/>
<path d="M148.663 544.725H153.688C154.229 545.841 154.5 547.009 154.5 548.227H141V499.811H154.5C154.5 500.487 154.432 501.079 154.297 501.587C154.195 502.094 153.992 502.67 153.688 503.312H148.663V544.725Z" fill="black"/>
<path d="M180.467 540.969C179.689 540.969 178.741 540.918 177.625 540.817C174.005 540.546 170.824 540.411 168.084 540.411C167.339 539.464 166.967 538.381 166.967 537.163C168.084 537.163 168.879 536.977 169.352 536.605C169.86 536.199 170.114 535.522 170.114 534.575V510.722C170.114 509.808 169.86 509.166 169.352 508.793C168.879 508.387 168.084 508.184 166.967 508.184C166.967 506.899 167.339 505.833 168.084 504.987C170.655 504.987 172.973 504.92 175.036 504.784C177.1 504.649 178.318 504.564 178.69 504.53C179.841 504.429 180.67 504.378 181.177 504.378C184.933 504.378 188.079 505.156 190.617 506.713C193.188 508.269 195.083 510.384 196.301 513.056C197.553 515.696 198.179 518.656 198.179 521.938C198.179 525.558 197.536 528.806 196.25 531.682C194.998 534.524 193.053 536.791 190.414 538.482C187.775 540.14 184.459 540.969 180.467 540.969ZM180.061 536.757C182.97 536.757 185.203 535.657 186.76 533.458C188.35 531.225 189.145 527.639 189.145 522.699C189.145 517.929 188.299 514.359 186.608 511.991C184.95 509.622 182.632 508.438 179.655 508.438C179.08 508.438 178.674 508.472 178.437 508.54V536.655C178.775 536.723 179.316 536.757 180.061 536.757Z" fill="black"/>
<path d="M215.787 535.234C217.919 535.234 219.898 534.558 221.725 533.204C221.996 533.475 222.233 533.881 222.436 534.422C222.639 534.964 222.74 535.437 222.74 535.843C222.74 536.452 222.334 537.163 221.522 537.975C220.71 538.753 219.577 539.43 218.122 540.005C216.701 540.58 215.094 540.868 213.301 540.868C210.797 540.868 208.598 540.326 206.703 539.244C204.842 538.161 203.404 536.588 202.389 534.524C201.374 532.46 200.867 530.024 200.867 527.216C200.867 524.34 201.408 521.819 202.491 519.654C203.607 517.489 205.13 515.831 207.058 514.681C208.987 513.496 211.169 512.904 213.605 512.904C216.684 512.904 219.137 513.801 220.964 515.594C222.791 517.387 223.705 519.874 223.705 523.054C223.705 524.543 223.468 525.727 222.994 526.607C222.52 527.453 221.674 527.876 220.456 527.876H209.494C209.697 532.781 211.795 535.234 215.787 535.234ZM213.301 516.406C212.252 516.406 211.372 516.998 210.662 518.182C209.951 519.333 209.562 521.278 209.494 524.019H214.62C215.162 524.019 215.517 523.832 215.686 523.46C215.855 523.088 215.94 522.513 215.94 521.735C215.94 519.739 215.703 518.351 215.229 517.573C214.756 516.795 214.113 516.406 213.301 516.406Z" fill="black"/>
<path d="M237.252 526.759L239.587 535.64L241.922 526.759L243.901 519.857C244.036 519.316 244.104 518.91 244.104 518.639C244.104 517.929 243.867 517.404 243.393 517.066C242.953 516.694 242.311 516.508 241.465 516.508C241.465 515.12 241.786 514.105 242.429 513.462H252.275C252.951 514.139 253.29 515.154 253.29 516.508C252.444 516.508 251.801 516.711 251.361 517.117C250.921 517.523 250.549 518.199 250.245 519.147L244.967 535.336C244.391 537.332 243.749 538.736 243.038 539.548C242.328 540.36 241.245 540.766 239.79 540.766H234.512L226.493 519.147C226.121 518.165 225.749 517.489 225.377 517.117C225.005 516.711 224.396 516.508 223.55 516.508C223.55 515.188 223.905 514.173 224.616 513.462H236.187C236.559 513.835 236.846 514.308 237.049 514.884C237.252 515.425 237.354 515.966 237.354 516.508C236.643 516.508 236.068 516.711 235.628 517.117C235.189 517.489 234.969 518.047 234.969 518.791C234.969 519.028 235.036 519.383 235.172 519.857L237.252 526.759Z" fill="black"/>
<path d="M268.074 535.234C270.206 535.234 272.185 534.558 274.012 533.204C274.283 533.475 274.52 533.881 274.723 534.422C274.926 534.964 275.027 535.437 275.027 535.843C275.027 536.452 274.621 537.163 273.809 537.975C272.997 538.753 271.864 539.43 270.409 540.005C268.988 540.58 267.381 540.868 265.587 540.868C263.084 540.868 260.885 540.326 258.99 539.244C257.129 538.161 255.691 536.588 254.676 534.524C253.661 532.46 253.154 530.024 253.154 527.216C253.154 524.34 253.695 521.819 254.778 519.654C255.894 517.489 257.417 515.831 259.345 514.681C261.274 513.496 263.456 512.904 265.892 512.904C268.971 512.904 271.424 513.801 273.251 515.594C275.078 517.387 275.991 519.874 275.991 523.054C275.991 524.543 275.754 525.727 275.281 526.607C274.807 527.453 273.961 527.876 272.743 527.876H261.781C261.984 532.781 264.082 535.234 268.074 535.234ZM265.587 516.406C264.539 516.406 263.659 516.998 262.948 518.182C262.238 519.333 261.849 521.278 261.781 524.019H266.907C267.448 524.019 267.804 523.832 267.973 523.46C268.142 523.088 268.226 522.513 268.226 521.735C268.226 519.739 267.99 518.351 267.516 517.573C267.042 516.795 266.399 516.406 265.587 516.406Z" fill="black"/>
<path d="M281.571 507.931C281.571 507.085 281.318 506.459 280.81 506.053C280.337 505.613 279.44 505.393 278.12 505.393V503.363C279.338 502.686 280.878 502.111 282.739 501.638C284.6 501.164 286.105 500.927 287.256 500.927C288.068 500.927 288.643 501.096 288.981 501.435C289.319 501.773 289.489 502.365 289.489 503.211V534.879C289.489 535.928 289.692 536.655 290.098 537.061C290.537 537.467 291.265 537.67 292.28 537.67C292.28 538.618 291.874 539.531 291.062 540.411H279.947C279.169 539.565 278.78 538.652 278.78 537.67C279.761 537.67 280.472 537.467 280.912 537.061C281.352 536.622 281.571 535.894 281.571 534.879V507.931Z" fill="black"/>
<path d="M306.125 541.071C302.403 541.071 299.426 539.903 297.193 537.569C294.96 535.201 293.843 531.834 293.843 527.47C293.843 524.357 294.368 521.701 295.416 519.502C296.499 517.303 298.005 515.645 299.933 514.528C301.862 513.412 304.095 512.853 306.632 512.853C309.068 512.853 311.2 513.395 313.027 514.478C314.888 515.526 316.326 517.083 317.341 519.147C318.389 521.21 318.914 523.714 318.914 526.658C318.914 529.736 318.373 532.359 317.29 534.524C316.241 536.689 314.752 538.33 312.824 539.447C310.895 540.529 308.662 541.071 306.125 541.071ZM306.531 537.417C307.715 537.417 308.595 536.74 309.17 535.387C309.745 534.033 310.033 531.53 310.033 527.876C310.033 524.797 309.88 522.428 309.576 520.771C309.271 519.113 308.848 517.979 308.307 517.37C307.766 516.761 307.072 516.457 306.226 516.457C305.042 516.457 304.145 517.133 303.536 518.487C302.961 519.84 302.674 522.378 302.674 526.099C302.674 529.144 302.826 531.496 303.13 533.154C303.435 534.778 303.858 535.894 304.399 536.503C304.974 537.112 305.685 537.417 306.531 537.417Z" fill="black"/>
<path d="M333.88 540.969C333.576 540.969 332.916 540.935 331.901 540.868V544.572C331.901 545.486 332.222 546.18 332.865 546.653C333.542 547.127 334.303 547.364 335.149 547.364C335.149 548.379 334.76 549.275 333.982 550.054H322.766C321.954 549.242 321.548 548.345 321.548 547.364C322.529 547.364 323.172 547.161 323.476 546.755C323.781 546.349 323.933 545.621 323.933 544.572V520.263C323.933 519.35 323.679 518.707 323.172 518.335C322.664 517.929 321.785 517.726 320.533 517.726V515.442C321.615 514.799 322.986 514.241 324.643 513.767C326.335 513.259 327.638 513.006 328.551 513.006C329.262 513.006 329.837 513.158 330.277 513.462C330.717 513.733 331.038 514.258 331.241 515.036C332.628 513.682 334.675 513.006 337.382 513.006C339.243 513.006 340.951 513.479 342.508 514.427C344.064 515.374 345.299 516.812 346.212 518.741C347.16 520.635 347.633 522.953 347.633 525.693C347.633 528.84 347.024 531.563 345.806 533.864C344.588 536.165 342.931 537.924 340.833 539.142C338.735 540.36 336.418 540.969 333.88 540.969ZM338.854 526.911C338.854 523.629 338.346 521.244 337.331 519.756C336.316 518.267 334.98 517.523 333.322 517.523C332.78 517.523 332.307 517.624 331.901 517.827V536.757C332.476 537.095 333.119 537.264 333.829 537.264C335.318 537.264 336.519 536.402 337.433 534.676C338.38 532.951 338.854 530.362 338.854 526.911Z" fill="black"/>
<path d="M391.602 534.93C391.602 536.385 392.43 537.264 394.088 537.569V539.041C392.803 540.157 390.722 540.715 387.846 540.715C386.425 540.715 385.308 540.529 384.496 540.157C383.684 539.751 383.278 539.058 383.278 538.076V521.177C383.278 520.094 382.974 519.265 382.365 518.69C381.79 518.081 381.012 517.776 380.03 517.776C378.812 517.776 377.764 518.182 376.884 518.994C376.918 519.163 376.935 519.417 376.935 519.756V534.93C376.935 535.911 377.138 536.622 377.544 537.061C377.95 537.467 378.592 537.67 379.472 537.67C379.472 538.685 379.066 539.599 378.254 540.411H367.444C366.666 539.565 366.277 538.652 366.277 537.67C367.123 537.67 367.732 537.467 368.104 537.061C368.476 536.622 368.662 535.911 368.662 534.93V521.177C368.662 520.128 368.358 519.299 367.749 518.69C367.14 518.081 366.379 517.776 365.465 517.776C364.788 517.776 364.112 517.945 363.435 518.284C362.758 518.588 362.2 519.011 361.76 519.553V534.93C361.76 535.911 361.929 536.622 362.268 537.061C362.64 537.467 363.249 537.67 364.095 537.67C364.095 538.719 363.689 539.633 362.877 540.411H351.864C351.052 539.599 350.646 538.685 350.646 537.67C351.661 537.67 352.388 537.467 352.828 537.061C353.268 536.622 353.488 535.911 353.488 534.93V520.06C353.488 519.147 353.234 518.504 352.727 518.132C352.219 517.726 351.34 517.523 350.088 517.523V515.29C351.17 514.647 352.693 514.072 354.655 513.564C356.651 513.056 358.157 512.803 359.172 512.803C359.916 512.803 360.492 513.04 360.898 513.513C361.337 513.953 361.625 514.799 361.76 516.051C362.64 515.036 363.756 514.241 365.11 513.665C366.463 513.09 367.969 512.803 369.627 512.803C373.01 512.803 375.209 513.936 376.224 516.203C377.104 515.12 378.237 514.291 379.624 513.716C381.045 513.107 382.619 512.803 384.344 512.803C386.746 512.803 388.556 513.395 389.774 514.579C390.993 515.763 391.602 517.489 391.602 519.756V534.93Z" fill="black"/>
<path d="M411.305 535.234C413.437 535.234 415.416 534.558 417.243 533.204C417.514 533.475 417.751 533.881 417.954 534.422C418.157 534.964 418.258 535.437 418.258 535.843C418.258 536.452 417.852 537.163 417.04 537.975C416.228 538.753 415.095 539.43 413.64 540.005C412.219 540.58 410.612 540.868 408.819 540.868C406.315 540.868 404.116 540.326 402.221 539.244C400.36 538.161 398.922 536.588 397.907 534.524C396.892 532.46 396.385 530.024 396.385 527.216C396.385 524.34 396.926 521.819 398.009 519.654C399.125 517.489 400.648 515.831 402.576 514.681C404.505 513.496 406.687 512.904 409.123 512.904C412.202 512.904 414.655 513.801 416.482 515.594C418.309 517.387 419.222 519.874 419.222 523.054C419.222 524.543 418.986 525.727 418.512 526.607C418.038 527.453 417.192 527.876 415.974 527.876H405.012C405.215 532.781 407.313 535.234 411.305 535.234ZM408.819 516.406C407.77 516.406 406.89 516.998 406.18 518.182C405.469 519.333 405.08 521.278 405.012 524.019H410.138C410.679 524.019 411.035 523.832 411.204 523.46C411.373 523.088 411.458 522.513 411.458 521.735C411.458 519.739 411.221 518.351 410.747 517.573C410.273 516.795 409.631 516.406 408.819 516.406Z" fill="black"/>
<path d="M450.584 539.041C450.076 539.548 449.163 539.954 447.843 540.259C446.558 540.563 445.323 540.715 444.138 540.715C442.684 540.715 441.601 540.445 440.89 539.903C440.214 539.362 439.875 538.499 439.875 537.315V521.481C439.875 520.162 439.588 519.214 439.013 518.639C438.438 518.064 437.676 517.776 436.729 517.776C435.342 517.776 434.174 518.335 433.227 519.451V534.93C433.227 535.911 433.43 536.622 433.836 537.061C434.276 537.501 435.003 537.721 436.018 537.721C436.018 538.736 435.629 539.633 434.851 540.411H423.331C422.519 539.599 422.113 538.702 422.113 537.721C423.128 537.721 423.855 537.501 424.295 537.061C424.735 536.622 424.955 535.911 424.955 534.93V520.111C424.955 519.197 424.701 518.554 424.194 518.182C423.686 517.776 422.806 517.573 421.555 517.573V515.29C422.637 514.681 424.16 514.122 426.122 513.615C428.118 513.107 429.624 512.853 430.639 512.853C431.417 512.853 432.009 513.107 432.415 513.615C432.855 514.088 433.109 515.002 433.176 516.355C434.056 515.273 435.156 514.427 436.475 513.818C437.795 513.175 439.283 512.853 440.941 512.853C443.377 512.853 445.17 513.479 446.321 514.731C447.505 515.949 448.097 517.962 448.097 520.771V534.625C448.097 536.283 448.909 537.264 450.533 537.569L450.584 539.041Z" fill="black"/>
<path d="M463.288 518.03V532.342C463.288 533.357 463.491 534.067 463.897 534.473C464.303 534.845 464.878 535.031 465.623 535.031C466.265 535.031 466.942 534.862 467.653 534.524C468.363 534.186 468.921 533.763 469.327 533.255C469.666 533.526 469.902 533.932 470.038 534.473C470.207 535.014 470.292 535.505 470.292 535.945C470.292 536.723 470.021 537.484 469.48 538.229C468.938 538.973 468.126 539.582 467.044 540.056C465.961 540.529 464.658 540.766 463.136 540.766C460.767 540.766 458.856 540.09 457.401 538.736C455.98 537.383 455.269 535.133 455.269 531.986V518.03H452.072V514.934C452.952 514.799 453.798 514.241 454.61 513.259C455.456 512.244 456.166 510.993 456.741 509.504C457.35 507.981 457.739 506.476 457.909 504.987C458.518 504.886 459.076 504.835 459.583 504.835C460.801 504.835 461.698 505.19 462.273 505.901C462.882 506.577 463.187 507.339 463.187 508.184V513.513H469.074C469.074 514.528 469.023 515.408 468.921 516.152C468.82 516.863 468.6 517.489 468.262 518.03H463.288Z" fill="black"/>
<path d="M482.643 503.312C482.339 502.67 482.119 502.094 481.984 501.587C481.882 501.079 481.831 500.487 481.831 499.811H495.331V548.227H481.831C481.831 547.009 482.102 545.841 482.643 544.725H487.668V503.312H482.643Z" fill="black"/>
<path fill-rule="evenodd" clip-rule="evenodd" d="M297.056 135.432C296.962 137.716 296.948 140.089 297.019 142.552C297.116 145.928 299.841 148.635 303.217 148.711C306.593 148.788 309.437 146.206 309.687 142.838C309.884 140.173 309.907 137.655 309.763 135.282C310.435 121.668 314.349 113.17 318.723 108.375C323.102 103.575 328.109 102.224 332.065 102.823C336.023 103.421 339.476 106.012 341.04 110.418C342.592 114.788 342.533 121.801 337.484 131.293C335.424 133.698 333.648 136.533 332.2 139.797C330.883 142.766 332.022 146.251 334.838 147.87C337.655 149.488 341.239 148.717 343.141 146.084C344.949 143.582 346.526 141.123 347.886 138.711C351.455 135.074 355.966 133.892 360.468 134.389C365.364 134.93 369.776 137.426 372.16 140.372C374.348 143.077 374.527 145.513 372.936 147.909C370.856 151.04 364.898 155.466 350.881 158.591C347.462 159.353 345.308 162.744 346.07 166.163C346.833 169.583 350.223 171.737 353.643 170.974C368.69 167.619 378.673 162.201 383.504 154.93C388.823 146.923 386.885 138.4 382.023 132.391C377.356 126.624 369.784 122.653 361.86 121.778C359.328 121.499 356.716 121.533 354.115 121.938C355.078 116.186 354.663 110.866 352.996 106.172C349.843 97.2925 342.479 91.5656 333.963 90.2777C325.445 88.9896 316.319 92.1843 309.35 99.8245C305.909 103.596 303.038 108.383 300.93 114.188C298.864 112.304 296.491 110.847 293.866 109.842C285.393 106.597 275.846 108.704 268.914 113.784C261.817 118.984 256.804 127.779 258.217 138.448C259.604 148.913 266.976 159.736 281.346 169.953C284.202 171.983 288.162 171.314 290.192 168.459C292.222 165.603 291.553 161.642 288.698 159.612C275.856 150.483 271.54 142.403 270.795 136.782C270.077 131.365 272.491 126.892 276.413 124.018C280.5 121.023 285.563 120.248 289.328 121.69C292.57 122.932 296.351 126.427 297.056 135.432Z" fill="black"/>
<path d="M270.322 183.105C261.895 183.567 255.412 189.735 248.587 193.97C229.841 206.863 211.578 220.678 195.94 237.289C178.513 255.348 162.749 276.308 156.49 300.997C153.097 313.118 155.189 326.811 163.044 336.807C172.732 349.767 188.576 356.098 203.969 359.236C215.196 361.739 226.947 360.839 238.157 358.708C270.547 351.939 299.055 332.393 321.04 308.179C335.735 291.804 346.455 272.305 355.316 252.294C356.319 250.287 357.138 246.756 354.082 246.235C349.342 246.687 345.89 250.655 342.36 253.484C332.529 262.881 324.972 274.311 316.536 284.91C307.405 296.865 296.879 308.262 284.869 316.886C268.014 329.596 248.341 339.576 227.163 342.086C213.361 343.263 199.534 340.997 187.319 334.2C179.875 330.031 172.564 322.688 173.384 313.487C172.75 303.184 177.476 293.614 182.025 284.68C196.925 257.441 219.482 235.337 243.328 215.844C253.67 207.432 263.848 198.742 274.818 191.157C278.372 190.927 278.582 185.792 275.623 184.416C274.072 183.401 272.151 183.075 270.322 183.105ZM394.249 183.562C390.037 183.648 384.165 183.907 382.847 188.864C381.655 192.368 384.784 195.619 388.233 195.721C402.754 197.681 417.543 199.372 431.259 204.841C440.899 209.641 449.997 215.704 458.007 222.905C462.982 228.147 468.025 234.273 468.984 241.662C467.076 246.953 460.791 248.844 455.71 249.722C443.206 251.376 431.655 244.655 422.056 237.406C412.87 230.8 403.452 223.716 392.327 220.818C387.455 220.06 381.421 219.662 377.574 223.297C375.21 225.904 378.123 228.847 380.692 229.724C395.845 237.806 408.051 250.204 422.206 259.759C431.972 266.082 443.742 269.289 455.351 269.191C467.654 269.005 481.028 263.334 486.439 251.661C491.239 241.411 486.84 229.585 480.477 221.074C470.146 207.157 455.145 197.271 439.293 190.656C426.499 185.798 412.691 184.299 399.108 183.6C397.489 183.525 395.869 183.552 394.249 183.562ZM208.927 186.902C197.901 187.61 187.101 190.69 176.86 194.725C166.616 199.154 158.22 207.35 152.457 216.792C149.862 220.82 148.798 226.796 152.718 230.392C157.376 234.682 163.654 237.061 169.839 238.093C173.579 238.298 178.441 239.234 181.171 236.085C183.085 232.491 178.922 229.475 176.296 227.674C173.043 225.41 169.328 223.959 165.923 221.966C171.341 212.826 180.416 206.397 190.364 202.957C198.145 200.182 205.978 196.865 214.276 196.148C217.147 196.518 219.941 193.602 218.278 190.854C216.581 187.307 212.441 186.73 208.927 186.902ZM294.517 198.734C290.416 198.79 289.346 203.533 290.063 206.81C291.709 217.492 293.82 228.743 300.403 237.604C302.771 240.208 305.463 236.502 306.289 234.232C308.296 227.253 306.841 219.799 305.579 212.8C304.372 208.202 303.503 202.756 299.536 199.674C298.039 198.778 296.22 198.663 294.517 198.734Z" fill="black"/>
</svg>
